<svg width="48" height="48" xmlns="http://www.w3.org/2000/svg">
  <!-- Background -->
  <rect width="48" height="48" rx="9" fill="#3B82F6"/>
  
  <!-- Clipboard background -->
  <rect x="9" y="7.5" width="30" height="33" rx="3" fill="white"/>
  
  <!-- Clipboard clip -->
  <rect x="19.5" y="4.5" width="9" height="4.5" rx="2.25" fill="#1E40AF"/>
  <rect x="21" y="6" width="6" height="1.5" rx="0.75" fill="white"/>
  
  <!-- Job items with checkmarks -->
  <!-- Item 1 - Completed -->
  <rect x="12" y="12" width="24" height="3" rx="1.5" fill="#F3F4F6"/>
  <circle cx="15" cy="13.5" r="2.25" fill="#10B981"/>
  <path d="M13.5 13.5l1 1 2-2" stroke="white" stroke-width="0.75" fill="none" stroke-linecap="round" stroke-linejoin="round"/>
  
  <!-- Item 2 - Completed -->
  <rect x="12" y="18" width="24" height="3" rx="1.5" fill="#F3F4F6"/>
  <circle cx="15" cy="19.5" r="2.25" fill="#10B981"/>
  <path d="M13.5 19.5l1 1 2-2" stroke="white" stroke-width="0.75" fill="none" stroke-linecap="round" stroke-linejoin="round"/>
  
  <!-- Item 3 - In Progress -->
  <rect x="12" y="24" width="24" height="3" rx="1.5" fill="#F3F4F6"/>
  <circle cx="15" cy="25.5" r="2.25" fill="#F59E0B"/>
  <circle cx="15" cy="25.5" r="0.75" fill="white"/>
  
  <!-- Item 4 - Pending -->
  <rect x="12" y="30" width="24" height="3" rx="1.5" fill="#F3F4F6"/>
  <circle cx="15" cy="31.5" r="2.25" fill="#9CA3AF"/>
  
  <!-- Briefcase icon -->
  <rect x="31.5" y="33" width="6" height="4.5" rx="0.75" fill="#1E40AF"/>
  <rect x="32.25" y="32.25" width="4.5" height="1.5" rx="0.375" fill="#1E40AF"/>
  <rect x="33.375" y="34.5" width="2.25" height="0.375" fill="white"/>
  <rect x="33.375" y="35.625" width="2.25" height="0.375" fill="white"/>
</svg>