<svg width="128" height="128" xmlns="http://www.w3.org/2000/svg">
  <!-- Background with rounded corners -->
  <rect width="128" height="128" rx="24" fill="#3B82F6"/>
  
  <!-- Clipboard background -->
  <rect x="24" y="20" width="80" height="88" rx="8" fill="white"/>
  
  <!-- Clipboard clip -->
  <rect x="52" y="12" width="24" height="12" rx="6" fill="#1E40AF"/>
  <rect x="56" y="16" width="16" height="4" rx="2" fill="white"/>
  
  <!-- Job list items with checkmarks -->
  <!-- Item 1 - Completed (green check) -->
  <rect x="32" y="32" width="64" height="8" rx="4" fill="#F3F4F6"/>
  <circle cx="40" cy="36" r="6" fill="#10B981"/>
  <path d="M37 36l2 2 4-4" stroke="white" stroke-width="2" fill="none" stroke-linecap="round" stroke-linejoin="round"/>
  
  <!-- Item 2 - Completed (green check) -->
  <rect x="32" y="48" width="64" height="8" rx="4" fill="#F3F4F6"/>
  <circle cx="40" cy="52" r="6" fill="#10B981"/>
  <path d="M37 52l2 2 4-4" stroke="white" stroke-width="2" fill="none" stroke-linecap="round" stroke-linejoin="round"/>
  
  <!-- Item 3 - In Progress (orange circle) -->
  <rect x="32" y="64" width="64" height="8" rx="4" fill="#F3F4F6"/>
  <circle cx="40" cy="68" r="6" fill="#F59E0B"/>
  <circle cx="40" cy="68" r="2" fill="white"/>
  
  <!-- Item 4 - Pending (gray circle) -->
  <rect x="32" y="80" width="64" height="8" rx="4" fill="#F3F4F6"/>
  <circle cx="40" cy="84" r="6" fill="#9CA3AF"/>
  
  <!-- Small briefcase icon in bottom right -->
  <rect x="84" y="88" width="16" height="12" rx="2" fill="#1E40AF"/>
  <rect x="86" y="86" width="12" height="4" rx="1" fill="#1E40AF"/>
  <rect x="89" y="92" width="6" height="1" fill="white"/>
  <rect x="89" y="95" width="6" height="1" fill="white"/>
</svg>