<svg width="32" height="32" xmlns="http://www.w3.org/2000/svg">
  <!-- Background -->
  <rect width="32" height="32" rx="6" fill="#3B82F6"/>
  
  <!-- Clipboard background -->
  <rect x="6" y="5" width="20" height="22" rx="2" fill="white"/>
  
  <!-- Clipboard clip -->
  <rect x="13" y="3" width="6" height="3" rx="1.5" fill="#1E40AF"/>
  <rect x="14" y="4" width="4" height="1" rx="0.5" fill="white"/>
  
  <!-- Job items with status -->
  <rect x="8" y="8" width="16" height="2" rx="1" fill="#F3F4F6"/>
  <circle cx="10" cy="9" r="1.5" fill="#10B981"/>
  <path d="M9 9l0.6 0.6 1.2-1.2" stroke="white" stroke-width="0.4" fill="none" stroke-linecap="round"/>
  
  <rect x="8" y="12" width="16" height="2" rx="1" fill="#F3F4F6"/>
  <circle cx="10" cy="13" r="1.5" fill="#10B981"/>
  <path d="M9 13l0.6 0.6 1.2-1.2" stroke="white" stroke-width="0.4" fill="none" stroke-linecap="round"/>
  
  <rect x="8" y="16" width="16" height="2" rx="1" fill="#F3F4F6"/>
  <circle cx="10" cy="17" r="1.5" fill="#F59E0B"/>
  <circle cx="10" cy="17" r="0.5" fill="white"/>
  
  <rect x="8" y="20" width="16" height="2" rx="1" fill="#F3F4F6"/>
  <circle cx="10" cy="21" r="1.5" fill="#9CA3AF"/>
  
  <!-- Small briefcase -->
  <rect x="21" y="22" width="4" height="3" rx="0.5" fill="#1E40AF"/>
  <rect x="21.5" y="21.5" width="3" height="1" rx="0.25" fill="#1E40AF"/>
</svg>